<svg id="Capa_1" data-name="Capa 1" xmlns="http://www.w3.org/2000/svg" viewBox="0 0 1920 1920"><defs><style>.cls-1{fill:#fff;}</style></defs><path class="cls-1" d="M1098.85,397.42c1.75,17.08-4.19,38.84-33.94,44.4-31.91,6-49.4-8.21-55-40.69-17-99-35.37-197.76-52.63-296.72-5.13-29.41,1.85-53.26,36.2-58.48,34.64-5.27,46.37,15.65,51.49,45.38C1062,190.33,1079.75,289.22,1098.85,397.42Z"/><path class="cls-1" d="M1355.78,115.42c-13.81,84.47-30.12,183.22-46,282.05-5.68,35.24-25.63,51.09-60.65,44.48-30.36-5.73-34.09-26.92-29.5-53.88C1236.4,289.4,1252,190.53,1268.42,91.8c4.85-29.19,19-49.28,52.48-46.19C1355.81,48.82,1363.9,70.31,1355.78,115.42Z"/><path class="cls-1" d="M861.8,518.85c-29.71-3.6-42.42-24-54.36-44.84-44.7-78-88.89-156.38-133.82-234.29-15.53-26.94-29.1-57.84,2.73-76.83,31.6-18.85,58.33-3.46,76.85,30.75,44,81.4,91.22,161.09,136.8,241.65C912.31,474.72,910,505.73,861.8,518.85Z"/><path class="cls-1" d="M1458,520.69c-38.67-11-57-33.16-39.35-65.94,50.18-93.12,103.74-184.43,156.28-276.28,14.68-25.65,38.8-27.34,62-17.17,22.51,9.88,29.73,31,17.48,53-52.59,94.81-105.58,189.43-160.36,283C1487.21,509,1468.83,514,1458,520.69Z"/><path class="cls-1" d="M1622.7,648.86c-24.72,3-39.69-5.27-48.74-24-9.65-20-1.83-36.34,13-49.12,77.66-67,155.33-134.07,234.09-199.8,22.1-18.44,51.19-22.31,70.94.71,21.82,25.41,5.35,48.54-16.52,67.27-72,61.59-143.63,123.48-215.74,184.87C1647.94,638.79,1637.26,652.31,1622.7,648.86Z"/><path class="cls-1" d="M1883.85,941.48c-52.86-6.35-79.36-42.08-104.14-77.25C1716,773.88,1628.45,731,1522.19,715.41a1918.31,1918.31,0,0,1-193.74-39c-68.17-17.35-131.8-11.79-189.11,28.61-21.33,15-31.16,18.93-49.12-4.1-57.35-73.55-139-100.62-227.67-113.57-75.69-11.06-152.53-18.82-226-38.54-55.09-14.78-82.17,2.72-109.64,46.94C429.08,753.08,330.33,909.92,228,1064.36c-82.12,124-153.72,253-213.15,389.16-18,41.38-18.32,70.39,32,84.94,180.23,52.13,373.07,55.88,540.82,159.47,64.18,39.62,151,43.19,228,60.92,20,4.6,49.36,9.43,61.61-1,41-34.8,79.6-13,118.67-3.4,156.13,38.35,312,77.82,478.79,119.6,18.11,3.47,40.14-3.71,53.59-33.21q189.41-415.27,379.82-830.08C1923,978.5,1918.56,945.64,1883.85,941.48ZM588.68,664.92c14.72-23.18,27.91-31.85,57.2-26C731,656.08,817.62,666.21,902.7,683.64c68.67,14.07,117.5,56.6,147.42,120.9,34.71,74.6,62.09,79.55,105.56,13.11,33.72-51.54,75.93-70.57,133.73-59.66,87.91,16.61,175.52,34.78,263.4,51.52,32.94,6.27,27.14,23.75,16.78,45.85-90.85,193.75-182.63,387.08-270.69,582.1-18.14,40.17-41.84,29.8-69.41,23-89.43-21.92-178.73-44.38-268.2-66.16C885.76,1376,810.22,1363,742.46,1416.91c-16.9,13.45-26.89,9.43-38.41-5.7-91-119.48-229.93-128.09-360.63-155.5-36-7.56-72.42-13.44-118.8-22C349.88,1038.4,469.88,852,588.68,664.92Zm1138,530.13c-82.11,177.64-165,355-245.39,533.36-17.83,39.58-32.8,55.22-82.13,40.91-141.61-41.09-285.84-73.08-428.78-109.69-34-8.72-65.33-7.82-100.34.45-96.18,22.7-186.93-8.25-266.29-56.58-31.23-19-59.43-39-95.2-47.14C393,1530,278,1501.31,161.77,1478.21c-46.68-9.28-45.12-24.55-30.51-63.7C158.54,1341.4,191.77,1300,280,1330.64c61.5,21.35,129.37,23.81,193.92,37,95.16,19.47,160.74,76.95,199,165,9.92,22.83,17.35,46.67,45.26,48.65,28.23,2,42.44-18.19,49.24-43,23.68-86.33,86.47-90.13,156.78-72.65,104.75,26,210,51.17,312.88,83.41,69.12,21.65,104.22,4.3,134.08-62.94,89.09-200.57,185.21-398,278.85-596.55,2-4.34,7.33-7.15,15.67-15C1809.5,1016,1809.44,1016,1726.7,1195.05Z"/></svg>